<?xml version="1.0" encoding="iso-8859-1"?>
<!-- Generator: Adobe Illustrator 19.0.0, SVG Export Plug-In . SVG Version: 6.00 Build 0)  -->
<svg version="1.1" id="Capa_1" xmlns="http://www.w3.org/2000/svg" xmlns:xlink="http://www.w3.org/1999/xlink" x="0px" y="0px"
	 viewBox="0 0 512.042 512.042" style="enable-background:new 0 0 512.042 512.042;" xml:space="preserve">
<path style="fill:#FFC107;" d="M368.273,45.994C337.873,15.655,296.396-0.945,253.458,0.042
	C165.184,1.362,94.695,73.991,96.015,162.264c0.686,45.868,21.044,89.23,55.896,119.057c1.835,1.488,3.107,3.557,3.605,5.867
	c5.376,28.992,17.941,96.853,57.856,96.853h85.333c39.979,0,52.971-70.4,57.877-96.896c0.476-2.284,1.736-4.33,3.563-5.781
	c67.049-57.377,74.89-158.244,17.513-225.293c-2.983-3.485-6.114-6.841-9.385-10.057V45.994z"/>
<g>
	<path style="fill:#455A64;" d="M298.706,405.375h-85.333c-5.891,0-10.667,4.776-10.667,10.667c0,5.891,4.776,10.667,10.667,10.667
		h85.333c5.891,0,10.667-4.776,10.667-10.667C309.372,410.151,304.597,405.375,298.706,405.375z"/>
	<path style="fill:#455A64;" d="M298.706,448.042h-85.333c-5.891,0-10.667,4.776-10.667,10.667s4.776,10.667,10.667,10.667h85.333
		c5.891,0,10.667-4.776,10.667-10.667S304.597,448.042,298.706,448.042z"/>
	<path style="fill:#455A64;" d="M277.372,490.708h-42.667c-5.891,0-10.667,4.776-10.667,10.667c0,5.891,4.776,10.667,10.667,10.667
		h42.667c5.891,0,10.667-4.776,10.667-10.667C288.039,495.484,283.263,490.708,277.372,490.708z"/>
</g>
<g>
</g>
<g>
</g>
<g>
</g>
<g>
</g>
<g>
</g>
<g>
</g>
<g>
</g>
<g>
</g>
<g>
</g>
<g>
</g>
<g>
</g>
<g>
</g>
<g>
</g>
<g>
</g>
<g>
</g>
</svg>
