<svg height="512pt" viewBox="0 0 512 512" width="512pt" xmlns="http://www.w3.org/2000/svg"><path d="m512 256c0 68.378906-26.628906 132.660156-74.980469 181.019531-48.347656 48.351563-112.640625 74.980469-181.019531 74.980469s-132.671875-26.628906-181.019531-74.980469c-48.351563-48.359375-74.980469-112.640625-74.980469-181.019531s26.628906-132.671875 74.980469-181.019531c48.347656-48.359375 112.640625-74.980469 181.019531-74.980469s132.671875 26.621094 181.019531 74.980469c48.351563 48.347656 74.980469 112.640625 74.980469 181.019531zm0 0" fill="#ff6426"/><path d="m512 256c0 68.378906-26.628906 132.660156-74.980469 181.019531-48.347656 48.351563-112.640625 74.980469-181.019531 74.980469v-512c68.378906 0 132.671875 26.621094 181.019531 74.980469 48.351563 48.347656 74.980469 112.640625 74.980469 181.019531zm0 0" fill="#d03b00"/><path d="m447.050781 256c0 53.351562-21.980469 101.660156-57.359375 136.351562-34.480468 33.820313-81.691406 54.699219-133.691406 54.699219-52.210938 0-99.578125-21.050781-134.089844-55.089843-35.148437-34.671876-56.960937-82.820313-56.960937-135.960938 0-105.351562 85.699219-191.058594 191.050781-191.058594s191.050781 85.707032 191.050781 191.058594zm0 0" fill="#ffb14a"/><path d="m447.050781 256c0 53.351562-21.980469 101.660156-57.359375 136.351562-34.480468 33.820313-81.691406 54.699219-133.691406 54.699219v-382.109375c105.351562 0 191.050781 85.707032 191.050781 191.058594zm0 0" fill="#ff8b00"/><path d="m390.261719 384.789062c0 1.25-.203125 3.929688-.570313 7.5625-34.480468 33.820313-81.691406 54.699219-133.691406 54.699219-52.210938 0-99.578125-21.050781-134.089844-55.089843-.109375-3.53125-.171875-6.0625-.171875-7.171876 0-54.070312 32.191407-102.628906 82-123.699218l52.261719-.050782 52.03125-.050781c49.949219 21.023438 82.230469 69.613281 82.230469 123.800781zm0 0" fill="#f9cea0"/><path d="m390.261719 384.789062c0 1.25-.203125 3.929688-.570313 7.5625-34.480468 33.820313-81.691406 54.699219-133.691406 54.699219v-186.011719l52.03125-.050781c49.949219 21.023438 82.230469 69.613281 82.230469 123.800781zm0 0" fill="#ea9963"/><path d="m338.558594 225.539062c0 45.519532-37.027344 82.5625-82.558594 82.5625s-82.558594-37.042968-82.558594-82.5625c0-45.527343 37.027344-82.558593 82.558594-82.558593s82.558594 37.03125 82.558594 82.558593zm0 0" fill="#ffe8cc"/><path d="m338.558594 225.539062c0 45.519532-37.027344 82.5625-82.558594 82.5625v-165.121093c45.53125 0 82.558594 37.03125 82.558594 82.558593zm0 0" fill="#f9cea0"/></svg>